<!-- Generated by graphviz version 2.43.0 (0)
 -->
<!-- Title: G Pages: 1 -->
<svg id="cmap" width="1379pt" height="685pt"
 viewBox="0.00 0.00 1378.70 685.20" xmlns="http://www.w3.org/2000/svg" xmlns:xlink="http://www.w3.org/1999/xlink">
<g id="graph0" class="graph" transform="scale(1 1) rotate(0) translate(21.6 663.6)">
<title>G</title>
<polygon fill="white" stroke="transparent" points="-21.6,21.6 -21.6,-663.6 1357.1,-663.6 1357.1,21.6 -21.6,21.6"/>
<text text-anchor="middle" x="667.75" y="-625.2" font-family="Helvetica,sans-Serif" font-size="16.00">Acid&#45;Base Balance — Concept Map (NURS 419, Lecture 9/10/2026)</text>
<text text-anchor="middle" x="667.75" y="-607.2" font-family="Helvetica,sans-Serif" font-size="16.00">Normal: pH 7.35–7.45 &#160;· &#160;PaCO2 35–45 mm Hg &#160;· &#160;HCO3&#45; 22–26 mEq/L &#160;· &#160;ROME = Respiratory Opposite, Metabolic Equal</text>
<!-- ph -->
<g id="node1" class="node">
<title>ph</title>
<path fill="#fff2cc" stroke="black" d="M658,-598C658,-598 466,-598 466,-598 460,-598 454,-592 454,-586 454,-586 454,-550 454,-550 454,-544 460,-538 466,-538 466,-538 658,-538 658,-538 664,-538 670,-544 670,-550 670,-550 670,-586 670,-586 670,-592 664,-598 658,-598"/>
<text text-anchor="start" x="495" y="-583.4" font-family="Helvetica,sans-Serif" font-weight="bold" font-size="12.00">Body pH 7.35 – 7.45</text>
<text text-anchor="start" x="465" y="-571.4" font-family="Helvetica,sans-Serif" font-size="12.00">pH = potential of hydrogen (H+)</text>
<text text-anchor="start" x="477" y="-559.4" font-family="Helvetica,sans-Serif" font-size="12.00">More H+ = lower pH = ACID</text>
<text text-anchor="start" x="473" y="-547.4" font-family="Helvetica,sans-Serif" font-size="12.00">20 : 1 ratio of HCO3&#45; : H2CO3</text>
</g>
<!-- buffer -->
<g id="node2" class="node">
<title>buffer</title>
<path fill="#e2efda" stroke="black" d="M540.5,-498C540.5,-498 337.5,-498 337.5,-498 331.5,-498 325.5,-492 325.5,-486 325.5,-486 325.5,-454 325.5,-454 325.5,-448 331.5,-442 337.5,-442 337.5,-442 540.5,-442 540.5,-442 546.5,-442 552.5,-448 552.5,-454 552.5,-454 552.5,-486 552.5,-486 552.5,-492 546.5,-498 540.5,-498"/>
<text text-anchor="start" x="357.5" y="-484.2" font-family="Helvetica,sans-Serif" font-weight="bold" font-size="11.00">Buffers (resist pH change)</text>
<text text-anchor="start" x="342" y="-473.2" font-family="Helvetica,sans-Serif" font-size="11.00">Primary: Bicarbonate–carbonic acid</text>
<text text-anchor="start" x="336.5" y="-462.2" font-family="Helvetica,sans-Serif" font-size="11.00">CO2 + H2O ⇄ H2CO3 ⇄ H+ + HCO3&#45;</text>
<text text-anchor="start" x="389" y="-451.2" font-family="Helvetica,sans-Serif" font-size="11.00">Think: CO2 = acid</text>
</g>
<!-- ph&#45;&gt;buffer -->
<g id="edge1" class="edge">
<title>ph&#45;&gt;buffer</title>
<path fill="none" stroke="#555555" d="M503.25,-537.8C503.25,-537.8 503.25,-505.26 503.25,-505.26"/>
<polygon fill="#555555" stroke="#555555" points="505.7,-505.26 503.25,-498.26 500.8,-505.26 505.7,-505.26"/>
</g>
<!-- abg -->
<g id="node3" class="node">
<title>abg</title>
<path fill="#e2efda" stroke="black" d="M780.5,-492.5C780.5,-492.5 589.5,-492.5 589.5,-492.5 583.5,-492.5 577.5,-486.5 577.5,-480.5 577.5,-480.5 577.5,-459.5 577.5,-459.5 577.5,-453.5 583.5,-447.5 589.5,-447.5 589.5,-447.5 780.5,-447.5 780.5,-447.5 786.5,-447.5 792.5,-453.5 792.5,-459.5 792.5,-459.5 792.5,-480.5 792.5,-480.5 792.5,-486.5 786.5,-492.5 780.5,-492.5"/>
<text text-anchor="start" x="588.5" y="-478.7" font-family="Helvetica,sans-Serif" font-weight="bold" font-size="11.00">ABG (arterial — most accurate)</text>
<text text-anchor="start" x="630.5" y="-467.7" font-family="Helvetica,sans-Serif" font-size="11.00">pH · PaCO2 · HCO3&#45;</text>
<text text-anchor="start" x="589" y="-456.7" font-family="Helvetica,sans-Serif" font-size="11.00">Radial / brachial / femoral or A&#45;line</text>
</g>
<!-- ph&#45;&gt;abg -->
<g id="edge2" class="edge">
<title>ph&#45;&gt;abg</title>
<path fill="none" stroke="#555555" d="M623.75,-537.8C623.75,-537.8 623.75,-499.79 623.75,-499.79"/>
<polygon fill="#555555" stroke="#555555" points="626.2,-499.79 623.75,-492.79 621.3,-499.79 626.2,-499.79"/>
</g>
<!-- resp -->
<g id="node4" class="node">
<title>resp</title>
<path fill="#ddebf7" stroke="black" d="M668.5,-402C668.5,-402 387.5,-402 387.5,-402 381.5,-402 375.5,-396 375.5,-390 375.5,-390 375.5,-366 375.5,-366 375.5,-360 381.5,-354 387.5,-354 387.5,-354 668.5,-354 668.5,-354 674.5,-354 680.5,-360 680.5,-366 680.5,-366 680.5,-390 680.5,-390 680.5,-396 674.5,-402 668.5,-402"/>
<text text-anchor="start" x="410.5" y="-387.4" font-family="Helvetica,sans-Serif" font-weight="bold" font-size="12.00">RESPIRATORY = ventilation (lungs)</text>
<text text-anchor="start" x="486" y="-375.4" font-family="Helvetica,sans-Serif" font-size="12.00">Driver: PaCO2</text>
<text text-anchor="start" x="386.5" y="-363.4" font-family="Helvetica,sans-Serif" font-size="12.00">Compensated by KIDNEYS — slow (hours–days)</text>
</g>
<!-- abg&#45;&gt;resp -->
<g id="edge3" class="edge">
<title>abg&#45;&gt;resp</title>
<path fill="none" stroke="#555555" d="M629,-447.26C629,-447.26 629,-409.09 629,-409.09"/>
<polygon fill="#555555" stroke="#555555" points="631.45,-409.09 629,-402.09 626.55,-409.09 631.45,-409.09"/>
</g>
<!-- met -->
<g id="node5" class="node">
<title>met</title>
<path fill="#fce4d6" stroke="black" d="M966,-402C966,-402 718,-402 718,-402 712,-402 706,-396 706,-390 706,-390 706,-366 706,-366 706,-360 712,-354 718,-354 718,-354 966,-354 966,-354 972,-354 978,-360 978,-366 978,-366 978,-390 978,-390 978,-396 972,-402 966,-402"/>
<text text-anchor="start" x="717" y="-387.4" font-family="Helvetica,sans-Serif" font-weight="bold" font-size="12.00">METABOLIC = kidneys / GI / acid load</text>
<text text-anchor="start" x="800.5" y="-375.4" font-family="Helvetica,sans-Serif" font-size="12.00">Driver: HCO3&#45;</text>
<text text-anchor="start" x="748" y="-363.4" font-family="Helvetica,sans-Serif" font-size="12.00">Compensated by LUNGS — fast</text>
</g>
<!-- abg&#45;&gt;met -->
<g id="edge4" class="edge">
<title>abg&#45;&gt;met</title>
<path fill="none" stroke="#555555" d="M749.25,-447.26C749.25,-447.26 749.25,-409.09 749.25,-409.09"/>
<polygon fill="#555555" stroke="#555555" points="751.7,-409.09 749.25,-402.09 746.8,-409.09 751.7,-409.09"/>
</g>
<!-- ra -->
<g id="node6" class="node">
<title>ra</title>
<path fill="#bdd7ee" stroke="black" d="M350,-314C350,-314 12,-314 12,-314 6,-314 0,-308 0,-302 0,-302 0,-226 0,-226 0,-220 6,-214 12,-214 12,-214 350,-214 350,-214 356,-214 362,-220 362,-226 362,-226 362,-302 362,-302 362,-308 356,-314 350,-314"/>
<text text-anchor="start" x="113.5" y="-300.2" font-family="Helvetica,sans-Serif" font-weight="bold" font-size="11.00">Respiratory ACIDOSIS</text>
<text text-anchor="start" x="92" y="-289.2" font-family="Helvetica,sans-Serif" font-size="11.00">pH ↓ &#160;PaCO2 ↑ &#160;(HCO3&#45; normal)</text>
<text text-anchor="start" x="94" y="-278.2" font-family="Helvetica,sans-Serif" font-size="11.00">HYPOventilation → hypercapnia</text>
<text text-anchor="start" x="81" y="-267.2" font-family="Helvetica,sans-Serif" font-size="11.00">DEPRES: Drugs, Edema, Pneumonia,</text>
<text text-anchor="start" x="11" y="-256.2" font-family="Helvetica,sans-Serif" font-size="11.00">Resp alteration (stroke), Emphysema, Spasm (asthma/COPD)</text>
<text text-anchor="start" x="45.5" y="-245.2" font-family="Helvetica,sans-Serif" font-size="11.00">S/S: headache, blurred vision, restless→lethargy,</text>
<text text-anchor="start" x="101" y="-234.2" font-family="Helvetica,sans-Serif" font-size="11.00">warm flushed skin, RR ↓ late</text>
<text text-anchor="start" x="93" y="-223.2" font-family="Helvetica,sans-Serif" font-size="11.00">Kidneys: keep HCO3&#45;, dump H+</text>
</g>
<!-- resp&#45;&gt;ra -->
<g id="edge5" class="edge">
<title>resp&#45;&gt;ra</title>
<path fill="none" stroke="#555555" d="M375.42,-378C356.56,-378 343.75,-378 343.75,-378 343.75,-378 343.75,-321 343.75,-321"/>
<polygon fill="#555555" stroke="#555555" points="346.2,-321 343.75,-314 341.3,-321 346.2,-321"/>
</g>
<!-- ral -->
<g id="node7" class="node">
<title>ral</title>
<path fill="#bdd7ee" stroke="black" d="M659,-314C659,-314 399,-314 399,-314 393,-314 387,-308 387,-302 387,-302 387,-226 387,-226 387,-220 393,-214 399,-214 399,-214 659,-214 659,-214 665,-214 671,-220 671,-226 671,-226 671,-302 671,-302 671,-308 665,-314 659,-314"/>
<text text-anchor="start" x="457" y="-300.2" font-family="Helvetica,sans-Serif" font-weight="bold" font-size="11.00">Respiratory ALKALOSIS</text>
<text text-anchor="start" x="440" y="-289.2" font-family="Helvetica,sans-Serif" font-size="11.00">pH ↑ &#160;PaCO2 ↓ &#160;(HCO3&#45; normal)</text>
<text text-anchor="start" x="441.5" y="-278.2" font-family="Helvetica,sans-Serif" font-size="11.00">HYPERventilation → hypocapnia</text>
<text text-anchor="start" x="407.5" y="-267.2" font-family="Helvetica,sans-Serif" font-size="11.00">TACHYPNEA: Temp, Aspirin, Controlled vent,</text>
<text text-anchor="start" x="399" y="-256.2" font-family="Helvetica,sans-Serif" font-size="11.00">Hypervent, Yelp (anxiety/pain), Pneumothorax,</text>
<text text-anchor="start" x="443.5" y="-245.2" font-family="Helvetica,sans-Serif" font-size="11.00">Neuro, Embolism (PE), Altitude</text>
<text text-anchor="start" x="420.5" y="-234.2" font-family="Helvetica,sans-Serif" font-size="11.00">S/S: dizziness, tingling, tetany (low Ca)</text>
<text text-anchor="start" x="398" y="-223.2" font-family="Helvetica,sans-Serif" font-size="11.00">REST: Rebreather, Electrolytes, Sedative, Teach</text>
</g>
<!-- resp&#45;&gt;ral -->
<g id="edge6" class="edge">
<title>resp&#45;&gt;ral</title>
<path fill="none" stroke="#555555" d="M529,-353.82C529,-353.82 529,-321.42 529,-321.42"/>
<polygon fill="#555555" stroke="#555555" points="531.45,-321.42 529,-314.42 526.55,-321.42 531.45,-321.42"/>
</g>
<!-- ma -->
<g id="node8" class="node">
<title>ma</title>
<path fill="#f8cbad" stroke="black" d="M973.5,-314C973.5,-314 708.5,-314 708.5,-314 702.5,-314 696.5,-308 696.5,-302 696.5,-302 696.5,-226 696.5,-226 696.5,-220 702.5,-214 708.5,-214 708.5,-214 973.5,-214 973.5,-214 979.5,-214 985.5,-220 985.5,-226 985.5,-226 985.5,-302 985.5,-302 985.5,-308 979.5,-314 973.5,-314"/>
<text text-anchor="start" x="779" y="-300.2" font-family="Helvetica,sans-Serif" font-weight="bold" font-size="11.00">Metabolic ACIDOSIS</text>
<text text-anchor="start" x="752" y="-289.2" font-family="Helvetica,sans-Serif" font-size="11.00">pH ↓ &#160;HCO3&#45; ↓ &#160;(PaCO2 normal)</text>
<text text-anchor="start" x="761" y="-278.2" font-family="Helvetica,sans-Serif" font-size="11.00">Too much acid OR lost bicarb</text>
<text text-anchor="start" x="711.5" y="-267.2" font-family="Helvetica,sans-Serif" font-size="11.00">ACIDS: lactic Acidosis/sepsis, Chronic diarrhea,</text>
<text text-anchor="start" x="720" y="-256.2" font-family="Helvetica,sans-Serif" font-size="11.00">Impaired renal, DKA (+ salicylate ingestion)</text>
<text text-anchor="start" x="707.5" y="-245.2" font-family="Helvetica,sans-Serif" font-size="11.00">S/S: Kussmaul (deep, rapid), headache, lethargy</text>
<text text-anchor="start" x="709.5" y="-234.2" font-family="Helvetica,sans-Serif" font-size="11.00">Tx: LR (lactate→HCO3&#45;), NaHCO3 only if severe</text>
<text text-anchor="start" x="741.5" y="-223.2" font-family="Helvetica,sans-Serif" font-size="11.00">Lungs: hyperventilate, blow off CO2</text>
</g>
<!-- met&#45;&gt;ma -->
<g id="edge7" class="edge">
<title>met&#45;&gt;ma</title>
<path fill="none" stroke="#555555" d="M842,-353.82C842,-353.82 842,-321.42 842,-321.42"/>
<polygon fill="#555555" stroke="#555555" points="844.45,-321.42 842,-314.42 839.55,-321.42 844.45,-321.42"/>
</g>
<!-- mal -->
<g id="node9" class="node">
<title>mal</title>
<path fill="#f8cbad" stroke="black" d="M1323.5,-314C1323.5,-314 1022.5,-314 1022.5,-314 1016.5,-314 1010.5,-308 1010.5,-302 1010.5,-302 1010.5,-226 1010.5,-226 1010.5,-220 1016.5,-214 1022.5,-214 1022.5,-214 1323.5,-214 1323.5,-214 1329.5,-214 1335.5,-220 1335.5,-226 1335.5,-226 1335.5,-302 1335.5,-302 1335.5,-308 1329.5,-314 1323.5,-314"/>
<text text-anchor="start" x="1106.5" y="-300.2" font-family="Helvetica,sans-Serif" font-weight="bold" font-size="11.00">Metabolic ALKALOSIS</text>
<text text-anchor="start" x="1084" y="-289.2" font-family="Helvetica,sans-Serif" font-size="11.00">pH ↑ &#160;HCO3&#45; ↑ &#160;(PaCO2 normal)</text>
<text text-anchor="start" x="1102.5" y="-278.2" font-family="Helvetica,sans-Serif" font-size="11.00">Lost acid OR gained base</text>
<text text-anchor="start" x="1041.5" y="-267.2" font-family="Helvetica,sans-Serif" font-size="11.00">Vomiting / NG suction (lose HCl), loop diuretics,</text>
<text text-anchor="start" x="1039.5" y="-256.2" font-family="Helvetica,sans-Serif" font-size="11.00">steroids, hypokalemia, antacids, dialysis lactate</text>
<text text-anchor="start" x="1021.5" y="-245.2" font-family="Helvetica,sans-Serif" font-size="11.00">S/S: weakness, cramps, tetany, confusion, tachycardia</text>
<text text-anchor="start" x="1060" y="-234.2" font-family="Helvetica,sans-Serif" font-size="11.00">Tx: NS, IV KCl ≤ 10 mEq/hr, recheck BMP</text>
<text text-anchor="start" x="1081.5" y="-223.2" font-family="Helvetica,sans-Serif" font-size="11.00">Lungs: hypoventilate, retain CO2</text>
</g>
<!-- met&#45;&gt;mal -->
<g id="edge8" class="edge">
<title>met&#45;&gt;mal</title>
<path fill="none" stroke="#555555" d="M978.06,-378C1069.36,-378 1173,-378 1173,-378 1173,-378 1173,-321 1173,-321"/>
<polygon fill="#555555" stroke="#555555" points="1175.45,-321 1173,-314 1170.55,-321 1175.45,-321"/>
</g>
<!-- lytes -->
<g id="node10" class="node">
<title>lytes</title>
<path fill="#e4dfec" stroke="black" d="M958,-174C958,-174 412,-174 412,-174 406,-174 400,-168 400,-162 400,-162 400,-130 400,-130 400,-124 406,-118 412,-118 412,-118 958,-118 958,-118 964,-118 970,-124 970,-130 970,-130 970,-162 970,-162 970,-168 964,-174 958,-174"/>
<text text-anchor="start" x="536.5" y="-160.2" font-family="Helvetica,sans-Serif" font-weight="bold" font-size="11.00">Electrolyte shifts (H+ swaps with K+ and Ca++)</text>
<text text-anchor="start" x="411" y="-149.2" font-family="Helvetica,sans-Serif" font-size="11.00">ACIDOSIS: H+ into cell, K+ out → HYPERkalemia · H+ takes albumin, Ca++ freed → HYPERcalcemia</text>
<text text-anchor="start" x="440" y="-138.2" font-family="Helvetica,sans-Serif" font-size="11.00">ALKALOSIS: H+ out of cell, K+ in → HYPOkalemia · Ca++ binds albumin → HYPOcalcemia</text>
<text text-anchor="start" x="558" y="-127.2" font-family="Helvetica,sans-Serif" font-size="11.00">Hyper/hyper · Hypo/hypo → monitor EKG (K+)</text>
</g>
<!-- ra&#45;&gt;lytes -->
<g id="edge9" class="edge">
<title>ra&#45;&gt;lytes</title>
<path fill="none" stroke="#555555" d="M181,-213.96C181,-181.8 181,-146 181,-146 181,-146 392.86,-146 392.86,-146"/>
<polygon fill="#555555" stroke="#555555" points="392.86,-148.45 399.86,-146 392.86,-143.55 392.86,-148.45"/>
</g>
<!-- ral&#45;&gt;lytes -->
<g id="edge10" class="edge">
<title>ral&#45;&gt;lytes</title>
<path fill="none" stroke="#555555" d="M535.5,-213.96C535.5,-213.96 535.5,-181.27 535.5,-181.27"/>
<polygon fill="#555555" stroke="#555555" points="537.95,-181.27 535.5,-174.27 533.05,-181.27 537.95,-181.27"/>
</g>
<!-- ma&#45;&gt;lytes -->
<g id="edge11" class="edge">
<title>ma&#45;&gt;lytes</title>
<path fill="none" stroke="#555555" d="M833.25,-213.96C833.25,-213.96 833.25,-181.27 833.25,-181.27"/>
<polygon fill="#555555" stroke="#555555" points="835.7,-181.27 833.25,-174.27 830.8,-181.27 835.7,-181.27"/>
</g>
<!-- mal&#45;&gt;lytes -->
<g id="edge12" class="edge">
<title>mal&#45;&gt;lytes</title>
<path fill="none" stroke="#555555" d="M1173,-213.96C1173,-181.8 1173,-146 1173,-146 1173,-146 977.28,-146 977.28,-146"/>
<polygon fill="#555555" stroke="#555555" points="977.28,-143.55 970.28,-146 977.28,-148.45 977.28,-143.55"/>
</g>
<!-- comp -->
<g id="node11" class="node">
<title>comp</title>
<path fill="#fff2cc" stroke="black" d="M843.5,-78C843.5,-78 526.5,-78 526.5,-78 520.5,-78 514.5,-72 514.5,-66 514.5,-66 514.5,-12 514.5,-12 514.5,-6 520.5,0 526.5,0 526.5,0 843.5,0 843.5,0 849.5,0 855.5,-6 855.5,-12 855.5,-12 855.5,-66 855.5,-66 855.5,-72 849.5,-78 843.5,-78"/>
<text text-anchor="start" x="641" y="-64.2" font-family="Helvetica,sans-Serif" font-weight="bold" font-size="11.00">Compensation</text>
<text text-anchor="start" x="563.5" y="-53.2" font-family="Helvetica,sans-Serif" font-size="11.00">Uncompensated: only the driver has moved</text>
<text text-anchor="start" x="559.5" y="-42.2" font-family="Helvetica,sans-Serif" font-size="11.00">Partial: other value moving, pH still abnormal</text>
<text text-anchor="start" x="536" y="-31.2" font-family="Helvetica,sans-Serif" font-size="11.00">Full: pH back to 7.35–7.45 (leans toward the disorder)</text>
<text text-anchor="start" x="544.5" y="-20.2" font-family="Helvetica,sans-Serif" font-size="11.00">Mixed: both PaCO2 and HCO3&#45; point the same way</text>
<text text-anchor="start" x="525.5" y="-9.2" font-family="Helvetica,sans-Serif" font-size="11.00">4 steps: list → acid/base/normal → match 2 → check comp</text>
</g>
<!-- lytes&#45;&gt;comp -->
<g id="edge13" class="edge">
<title>lytes&#45;&gt;comp</title>
<path fill="none" stroke="#555555" d="M685,-117.89C685,-117.89 685,-85.19 685,-85.19"/>
<polygon fill="#555555" stroke="#555555" points="687.45,-85.19 685,-78.19 682.55,-85.19 687.45,-85.19"/>
</g>
</g>
</svg>
